<svg width="120" height="117" viewBox="0 0 120 117" fill="none" xmlns="http://www.w3.org/2000/svg">
<path d="M53.3518 23.3313C70.9312 19.3285 89.0709 29.3288 95.0922 47.1325C101.559 66.2537 91.5678 87.0437 72.8511 93.605C55.3515 99.7396 36.3409 91.292 28.6568 74.5393C48.6829 79.1805 62.5589 72.4229 67.3556 60.6794C72.029 49.2378 67.503 34.3147 53.3518 23.3313Z" fill="black" stroke="#F2E041" stroke-width="4"/>
<path d="M95.0648 16.6617L96.3333 11.8913L97.6073 16.6823C97.7586 17.2511 98.1583 17.7213 98.6954 17.962L102.555 19.6923L98.704 21.4187C98.1569 21.664 97.7528 22.1471 97.6081 22.729L96.3333 27.8558L95.0637 22.7499C94.9131 22.1439 94.4815 21.6465 93.9028 21.4119L89.6615 19.6923L93.9117 17.9691C94.4801 17.7387 94.9072 17.2545 95.0648 16.6617Z" fill="black" stroke="#F2E041" stroke-width="2"/>
<path d="M75.182 68.9791L77.2901 75.4837C77.4475 75.9695 77.7849 76.3767 78.233 76.6218L82.098 78.7356L78.225 80.8538C77.7865 81.0936 77.4537 81.4889 77.2921 81.9618L75.182 88.1372L73.0719 81.9618C72.9103 81.4889 72.5775 81.0936 72.139 80.8538L68.266 78.7356L72.131 76.6218C72.5791 76.3767 72.9164 75.9695 73.0739 75.4837L75.182 68.9791Z" fill="black" stroke="#F2E041" stroke-width="2"/>
<path d="M35.0142 27.0815L37.1834 31.0416C37.3671 31.377 37.6432 31.6528 37.9789 31.8361L41.9418 34L37.9789 36.1639C37.6432 36.3472 37.3671 36.623 37.1834 36.9584L35.0142 40.9185L32.8449 36.9584C32.6612 36.623 32.3851 36.3472 32.0494 36.1639L28.0865 34L32.0494 31.8361C32.3851 31.6528 32.6612 31.377 32.8449 31.0416L35.0142 27.0815Z" fill="black" stroke="#F2E041" stroke-width="2"/>
<path d="M83 35.5C83 35.5 88.5001 39.9999 91 47.5C93.5 55 93 60 93 60" stroke="#F2E041" stroke-width="2"/>
<path d="M88.9437 51.2978C88.9437 51.2978 88.68 49.2389 86.7212 44.9732C84.7625 40.7076 82 38.5681 82 38.5681" stroke="#F2E041" stroke-width="2"/>
</svg>
