<svg width="119" height="118" viewBox="0 0 119 118" fill="none" xmlns="http://www.w3.org/2000/svg">
<circle cx="59.5" cy="58.5" r="35.5" fill="#F2E041" stroke="black" stroke-width="4"/>
<path d="M58.5574 3.694L67.448 17.5H49.6667L58.5574 3.694Z" fill="#F2E041" stroke="black" stroke-width="4"/>
<path d="M20.5991 19.3803L36.5849 23.1356L23.7941 35.4875L20.5991 19.3803Z" fill="#F2E041" stroke="black" stroke-width="4"/>
<path d="M4.694 57.5L18.5 48.6094V66.3906L4.694 57.5Z" fill="#F2E041" stroke="black" stroke-width="4"/>
<path d="M58.5574 113.806L49.6668 100H67.448L58.5574 113.806Z" fill="#F2E041" stroke="black" stroke-width="4"/>
<path d="M114.306 57.5L100.5 66.3906V48.6094L114.306 57.5Z" fill="#F2E041" stroke="black" stroke-width="4"/>
<path d="M19.7298 96.9255L23.485 80.9396L35.8369 93.7304L19.7298 96.9255Z" fill="#F2E041" stroke="black" stroke-width="4"/>
<path d="M97.9255 98.1181L81.9396 94.3629L94.7304 82.011L97.9255 98.1181Z" fill="#F2E041" stroke="black" stroke-width="4"/>
<path d="M98.9255 19.7298L95.7304 35.8369L82.9396 23.4851L98.9255 19.7298Z" fill="#F2E041" stroke="black" stroke-width="4"/>
<path d="M60 28.5691C69.1898 29.2337 76.9431 32.7321 82.0617 39.4079C85.8187 44.3079 88.1562 50.9198 88.6004 59.3793" stroke="black" stroke-width="2"/>
<path d="M60 33.1588C73.1258 33.0711 80.241 43.9103 82.0559 50.7922" stroke="black" stroke-width="2"/>
<path d="M31 54C27.5139 69.3445 37.1759 80.3886 46.0761 84.2812" stroke="black" stroke-width="2"/>
</svg>
